<svg viewBox="0 0 59.17 13.27" xmlns="http://www.w3.org/2000/svg"><g fill="#c3eaff" transform="translate(-3.53 -3.44)"><path d="m3.53 16.67v-10a3.28 3.28 0 0 1 .27-1.33 3 3 0 0 1 .72-1 3.31 3.31 0 0 1 1.08-.67 3.79 3.79 0 0 1 1.33-.23 3.21 3.21 0 0 1 1.84.56 2.83 2.83 0 0 1 1.13 1.5l2.65 8.06a1.76 1.76 0 0 0 .3.61.61.61 0 0 0 .49.21q1 0 1-1.15v-6.55a3.28 3.28 0 0 1 .26-1.33 3 3 0 0 1 .72-1 3.31 3.31 0 0 1 1.08-.65 3.79 3.79 0 0 1 1.33-.23 3.13 3.13 0 0 1 1.82.53 3 3 0 0 1 1.14 1.5l4 11.17h-2.6l-3.52-10.1a2.23 2.23 0 0 0 -.31-.57.58.58 0 0 0 -.48-.21q-1 0-1 1.16v6.56a3.3 3.3 0 0 1 -.26 1.34 3 3 0 0 1 -.72 1 3.3 3.3 0 0 1 -1.08.65 3.78 3.78 0 0 1 -1.33.23 3.2 3.2 0 0 1 -1.84-.55 2.83 2.83 0 0 1 -1.12-1.52l-2.65-8.09a1.76 1.76 0 0 0 -.31-.57.61.61 0 0 0 -.47-.25q-1 0-1 1.16v9.76z"/><path d="m35.61 16.67-3.7-10.5a.49.49 0 0 0 -.2-.27.57.57 0 0 0 -.3-.08.49.49 0 0 0 -.5.36l-3.7 10.5h-2.46l4.1-11.49a2.32 2.32 0 0 1 1-1.28 3.18 3.18 0 0 1 3.16 0 2.31 2.31 0 0 1 1 1.28l4.09 11.49z"/><path d="m49.59 12.81a3.65 3.65 0 0 1 -1.1 2.89 4.48 4.48 0 0 1 -3.08 1h-6.76v-2.34h7.2a1.3 1.3 0 0 0 1-.46 1.65 1.65 0 0 0 .41-1.13 1.63 1.63 0 0 0 -.41-1.1 1.29 1.29 0 0 0 -1-.47h-3.72a4.83 4.83 0 0 1 -1.94-.35 3.7 3.7 0 0 1 -1.28-.85 3.35 3.35 0 0 1 -.71-1.23 4.37 4.37 0 0 1 -.2-1.4 4.78 4.78 0 0 1 .23-1.5 3.28 3.28 0 0 1 .74-1.24 3.45 3.45 0 0 1 1.29-.84 5.27 5.27 0 0 1 1.9-.3h6.57v2.31h-6.95a1.41 1.41 0 0 0 -1.05.46 1.51 1.51 0 0 0 -.44 1.07 1.54 1.54 0 0 0 .43 1.1 1.43 1.43 0 0 0 1.08.45h3.65a4.43 4.43 0 0 1 3 1 3.61 3.61 0 0 1 1.11 2.87z"/><path d="m60.25 16.67-3.7-10.5a.49.49 0 0 0 -.2-.27.58.58 0 0 0 -.3-.08.49.49 0 0 0 -.5.36l-3.7 10.5h-2.46l4.1-11.49a2.32 2.32 0 0 1 1-1.28 3.18 3.18 0 0 1 3.16 0 2.31 2.31 0 0 1 1 1.28l4.09 11.49z"/></g></svg>
